# xmcd
#
# Track frame offsets: 
#        151
#        17206
#        36735
#        55526
#        73037
#        91232
#        110013
#        126562
#        142339
#        159086
#        177555
#        193324
#        212457
#        229576
#        245797
#        264712
#
# Disc length: 3761 seconds
#
# Revision: 0
# Processed by: cddbd v1.5.1PL2 Copyright (c) Steve Scherf et al.
# Submitted via: ExactAudioCopy v0.95b4
#
DISCID=f80eaf10
DTITLE=ดอกรัก  ดวงมาลา - รวมฮิต 16 เพลงดัง  ตลับเพชร
DYEAR=2005
DGENRE=Country
TTITLE0=ฮักน้องตอนเมา
TTITLE1=แค่นี้ก็ดีใจแล้ว
TTITLE2=ผัวเผิ่นพาเป็น
TTITLE3=รอยยิ้มจิ้มป่น
TTITLE4=เสียใจครั้งทีสอง
TTITLE5=จุดดำในดวงใจ
TTITLE6=อย่าถามเรื่องเก่า
TTITLE7=สาวผู้อ้ายใหญ่
TTITLE8=อาหารเสริม
TTITLE9=คนหลายใจ
TTITLE10=ยกแฟนให้เพื่อน
TTITLE11=ฮักน้องหม่องได้ 
TTITLE12=รอจอทะเบียนใจ
TTITLE13=กลับคำทำร้ายใจ
TTITLE14=ย้อนอยากเจ็บ
TTITLE15=ชอฮักครึ่งใจ
EXTD=
EXTT0=
EXTT1=
EXTT2=
EXTT3=
EXTT4=
EXTT5=
EXTT6=
EXTT7=
EXTT8=
EXTT9=
EXTT10=
EXTT11=
EXTT12=
EXTT13=
EXTT14=
EXTT15=
PLAYORDER=
